<svg width="782" height="417" viewBox="0 0 782 417" fill="none" xmlns="http://www.w3.org/2000/svg">
<g filter="url(#filter0_d_301_21)">
<path d="M780 5.99999C780 3.79086 778.209 2 776 2H113.876C113.399 2 112.934 2.14838 112.545 2.42455V2.42455C92.4252 16.7178 65.4649 16.7178 45.3449 2.42455V2.42455C44.9561 2.14837 44.4911 2 44.0142 2H6C3.79086 2 2 3.79086 2 6V411C2 413.209 3.79086 415 6 415H43.9911C44.4792 415 44.9513 414.826 45.3227 414.509V414.509C64.6956 397.994 93.1945 397.994 112.567 414.509V414.509C112.939 414.826 113.411 415 113.899 415H776C778.209 415 780 413.209 780 411V5.99999Z" fill="#FDFDFD"/>
</g>
<line x1="117" y1="2" x2="117" y2="414" stroke="#EFE9E9" strokeWidth="2"/>
<defs>
<filter id="filter0_d_301_21" x="0" y="0" width="782" height="417" filterUnits="userSpaceOnUse" color-interpolation-filters="sRGB">
<feFlood flood-opacity="0" result="BackgroundImageFix"/>
<feColorMatrix in="SourceAlpha" type="matrix" values="0 0 0 0 0 0 0 0 0 0 0 0 0 0 0 0 0 0 127 0" result="hardAlpha"/>
<feOffset/>
<feGaussianBlur stdDeviation="1"/>
<feComposite in2="hardAlpha" operator="out"/>
<feColorMatrix type="matrix" values="0 0 0 0 0.228083 0 0 0 0 0.991667 0 0 0 0 0.0371875 0 0 0 0.25 0"/>
<feBlend mode="normal" in2="BackgroundImageFix" result="effect1_dropShadow_301_21"/>
<feBlend mode="normal" in="SourceGraphic" in2="effect1_dropShadow_301_21" result="shape"/>
</filter>
</defs>
</svg>
