<svg width="335" height="335" viewBox="0 0 335 335" fill="none" xmlns="http://www.w3.org/2000/svg">
<g filter="url(#filter0_d)">
<circle cx="167.5" cy="167.5" r="117.5" fill="#4C7A6C"/>
</g>
<circle cx="168" cy="166" r="106" fill="#2EAA84"/>
<circle cx="168" cy="166" r="106" fill="url(#paint0_radial)" fill-opacity="0.13"/>
<path d="M167.789 237C129.446 237 98 205.884 98 167.5C98 136.192 118.728 109.719 147.178 101.023V110.665C124.379 119.095 107.836 141.045 107.836 166.796V169.661C108.125 202.504 135.059 228.08 167.861 228.312C169.271 228.34 170.67 228.297 172.056 228.194V126.524L173.502 125.076L208.939 145.781V189.943L189.847 200.512V191.101L198.525 185.165L199.104 152.297L182.904 142.161V226.226V235.338C178.035 236.426 172.976 237 167.789 237Z" fill="white"/>
<path d="M167.499 98C205.956 98 237.159 129.293 236.999 167.79C237.127 198.364 217.12 224.357 189.557 233.497V224.036C211.758 214.843 227.621 194.863 227.927 169.661L227.928 167.321C227.906 134.299 200.869 106.977 167.882 106.977C166.905 106.977 165.934 107.001 164.968 107.047V210.214L163.233 211.227L128.23 190.232V145.202L147.178 135.211V146.36L139.223 151.718V184.296L154.988 194.142V108.373V99.125C159.047 98.386 163.229 98 167.499 98Z" fill="white"/>
<path d="M167.789 237C129.446 237 98 205.884 98 167.5C98 136.192 118.728 109.719 147.178 101.023V110.665C124.379 119.095 107.836 141.045 107.836 166.796V169.661C108.125 202.504 135.059 228.08 167.861 228.312C169.271 228.34 170.67 228.297 172.056 228.194V126.524L173.502 125.076L208.939 145.781V189.943L189.847 200.512V191.101L198.525 185.165L199.104 152.297L182.904 142.161V226.226V235.338C178.035 236.426 172.976 237 167.789 237Z" stroke="#299775"/>
<path d="M167.499 98C205.956 98 237.159 129.293 236.999 167.79C237.127 198.364 217.12 224.357 189.557 233.497V224.036C211.758 214.843 227.621 194.863 227.927 169.661L227.928 167.321C227.906 134.299 200.869 106.977 167.882 106.977C166.905 106.977 165.934 107.001 164.968 107.047V210.214L163.233 211.227L128.23 190.232V145.202L147.178 135.211V146.36L139.223 151.718V184.296L154.988 194.142V108.373V99.125C159.047 98.386 163.229 98 167.499 98Z" stroke="#299775"/>
<defs>
<filter id="filter0_d" x="0" y="0" width="335" height="335" filterUnits="userSpaceOnUse" color-interpolation-filters="sRGB">
<feFlood flood-opacity="0" result="BackgroundImageFix"/>
<feColorMatrix in="SourceAlpha" type="matrix" values="0 0 0 0 0 0 0 0 0 0 0 0 0 0 0 0 0 0 127 0" result="hardAlpha"/>
<feOffset/>
<feGaussianBlur stdDeviation="25"/>
<feComposite in2="hardAlpha" operator="out"/>
<feColorMatrix type="matrix" values="0 0 0 0 0 0 0 0 0 0 0 0 0 0 0 0 0 0 0.25 0"/>
<feBlend mode="normal" in2="BackgroundImageFix" result="effect1_dropShadow"/>
<feBlend mode="normal" in="SourceGraphic" in2="effect1_dropShadow" result="shape"/>
</filter>
<radialGradient id="paint0_radial" cx="0" cy="0" r="1" gradientUnits="userSpaceOnUse" gradientTransform="translate(168 166) rotate(90) scale(106)">
<stop stop-opacity="0"/>
<stop offset="1"/>
</radialGradient>
</defs>
</svg>
